<svg width="114" height="46" viewBox="0 0 114 46" fill="none" xmlns="http://www.w3.org/2000/svg">
<path d="M89.0009 28.9243V17.8885C89.0009 16.8792 88.6809 16.0691 88.0409 15.4582C87.4276 14.8207 86.6409 14.502 85.6809 14.502C85.0143 14.502 84.4276 14.6481 83.9209 14.9403C83.4143 15.2059 83.0143 15.6043 82.7209 16.1355C82.4276 16.6401 82.2809 17.2245 82.2809 17.8885L79.9209 16.7331C79.9209 15.2192 80.2543 13.8911 80.9209 12.749C81.5876 11.6069 82.5076 10.7304 83.6809 10.1196C84.8809 9.4821 86.2276 9.16338 87.7209 9.16338C89.1609 9.16338 90.4276 9.50866 91.521 10.1992C92.6409 10.8632 93.521 11.753 94.1609 12.8686C94.8009 13.9841 95.1209 15.2059 95.1209 16.5339V28.9243H89.0009ZM76.1609 28.9243V9.56178H82.2809V28.9243H76.1609Z" fill="#1F1F1F"/>
<path d="M62.4741 29.3626C60.4741 29.3626 58.6607 28.9243 57.0341 28.0478C55.4341 27.1448 54.1674 25.923 53.2341 24.3825C52.3007 22.842 51.8341 21.1156 51.8341 19.2032C51.8341 17.2909 52.3007 15.5777 53.2341 14.0638C54.1674 12.5498 55.4341 11.3546 57.0341 10.4781C58.6341 9.57505 60.4474 9.12352 62.4741 9.12352C64.5007 9.12352 66.3141 9.56177 67.9141 10.4383C69.5141 11.3148 70.7807 12.5233 71.7141 14.0638C72.6474 15.5777 73.1141 17.2909 73.1141 19.2032C73.1141 21.1156 72.6474 22.842 71.7141 24.3825C70.7807 25.923 69.5141 27.1448 67.9141 28.0478C66.3141 28.9243 64.5007 29.3626 62.4741 29.3626ZM62.4741 23.8247C63.3541 23.8247 64.1274 23.6388 64.7941 23.2669C65.4607 22.8685 65.9674 22.3241 66.3141 21.6335C66.6874 20.9164 66.8741 20.1063 66.8741 19.2032C66.8741 18.3001 66.6874 17.5166 66.3141 16.8526C65.9407 16.162 65.4207 15.6308 64.7541 15.259C64.1141 14.8606 63.3541 14.6614 62.4741 14.6614C61.6207 14.6614 60.8607 14.8606 60.1941 15.259C59.5274 15.6308 59.0074 16.162 58.6341 16.8526C58.2607 17.5432 58.0741 18.34 58.0741 19.243C58.0741 20.1195 58.2607 20.9164 58.6341 21.6335C59.0074 22.3241 59.5274 22.8685 60.1941 23.2669C60.8607 23.6388 61.6207 23.8247 62.4741 23.8247Z" fill="#1F1F1F"/>
<path d="M23.429 28.9243L34.629 0.796814H40.309L51.389 28.9243H44.749L36.269 5.57769H38.549L29.949 28.9243H23.429ZM29.789 23.8247V18.7251H45.189V23.8247H29.789Z" fill="#1F1F1F"/>
<path d="M9.48 29.3227C7.64 29.3227 6 28.8845 4.56 28.008C3.14667 27.1315 2.02667 25.9362 1.2 24.4223C0.4 22.9084 0 21.1819 0 19.243C0 17.3041 0.4 15.5777 1.2 14.0637C2.02667 12.5498 3.14667 11.3546 4.56 10.4781C6 9.60159 7.64 9.16335 9.48 9.16335C10.8133 9.16335 12.0133 9.41567 13.08 9.92031C14.1733 10.425 15.0667 11.1288 15.76 12.0319C16.48 12.9084 16.88 13.9177 16.96 15.0598V23.2271C16.88 24.3692 16.4933 25.405 15.8 26.3347C15.1067 27.2377 14.2133 27.9681 13.12 28.5259C12.0267 29.0571 10.8133 29.3227 9.48 29.3227ZM10.56 23.8247C11.44 23.8247 12.2 23.6388 12.84 23.2669C13.48 22.8685 13.9867 22.324 14.36 21.6335C14.7333 20.9429 14.92 20.1461 14.92 19.243C14.92 18.34 14.7333 17.5564 14.36 16.8924C14.0133 16.2019 13.5067 15.6574 12.84 15.259C12.2 14.8606 11.4533 14.6614 10.6 14.6614C9.74667 14.6614 8.98667 14.8606 8.32 15.259C7.68 15.6574 7.16 16.2019 6.76 16.8924C6.38667 17.583 6.2 18.3665 6.2 19.243C6.2 20.1195 6.38667 20.903 6.76 21.5936C7.13333 22.2842 7.65333 22.8287 8.32 23.2271C8.98667 23.6255 9.73333 23.8247 10.56 23.8247ZM20.68 28.9243H14.68V23.7052L15.6 19.004L14.56 14.3028V0H20.68V28.9243Z" fill="#1F1F1F"/>
<rect y="39.3546" width="98" height="5.97609" fill="#1F1F1F"/>
<rect x="106" y="37.3625" width="8" height="7.96813" rx="3.98406" fill="#1F1F1F"/>
</svg>
